<svg width="220" height="35" viewBox="0 0 220 35" fill="none" xmlns="http://www.w3.org/2000/svg">
<mask id="path-1-inside-1" fill="white">
<path d="M26.8339 33.4045V22.2966C26.8389 22.1654 26.8157 22.0346 26.7659 21.9131C26.7161 21.7915 26.6409 21.6821 26.5452 21.5922C26.4496 21.5022 26.3358 21.4338 26.2115 21.3916C26.0873 21.3494 25.9554 21.3343 25.8248 21.3474H12.3826C12.1407 21.3604 11.9133 21.4664 11.7478 21.6433C11.5823 21.8202 11.4915 22.0543 11.4945 22.2966V33.4045H0V1.6157H11.4945V13.5718C11.4863 13.6965 11.5028 13.8217 11.543 13.94C11.5832 14.0583 11.6464 14.1675 11.7289 14.2613C11.8114 14.3551 11.9117 14.4317 12.0238 14.4867C12.136 14.5417 12.2579 14.5739 12.3826 14.5816H25.855C25.9907 14.5941 26.1274 14.5765 26.2555 14.5301C26.3835 14.4838 26.4998 14.4098 26.5961 14.3134C26.6925 14.217 26.7664 14.1007 26.8127 13.9725C26.859 13.8443 26.8766 13.7076 26.8642 13.5718V1.6157H38.2477V33.4045H26.8339Z"/>
<path d="M139.367 1.6157H127.883V33.4045H139.367V1.6157Z"/>
<path d="M62.3468 29.9005C56.5945 29.9005 54.5862 22.9732 54.7174 17.3283C54.8385 11.9561 56.7358 5.63474 62.2358 5.55395C67.7358 5.47317 69.9055 11.7643 70.1174 17.2576C70.3193 23.0035 68.1697 29.9308 62.3468 29.9005ZM62.3468 0C50.8523 0 41.5073 6.897 41.5073 17.3283C41.5073 27.9414 49.5807 35 62.7807 35C74.467 35 83.7817 27.9313 83.6505 17.3586C83.4486 6.15984 74.1743 0 62.3468 0Z"/>
<path d="M106.609 15.8742H101.563C100.415 15.8913 99.3056 15.4619 98.4679 14.6764C97.6302 13.8909 97.1299 12.8106 97.0725 11.6633C97.1298 10.5141 97.6294 9.43175 98.4665 8.643C99.3037 7.85424 100.413 7.42033 101.563 7.4322H106.609C107.737 7.43715 108.818 7.88201 109.622 8.67217C110.427 9.46232 110.892 10.5354 110.918 11.6633C110.892 12.7893 110.426 13.8603 109.621 14.6472C108.816 15.4341 107.735 15.8745 106.609 15.8742ZM117.428 21.3474C117.301 21.111 117.232 20.8481 117.226 20.5799C117.226 20.2265 117.589 20.075 117.67 19.863C120.465 17.399 122.453 14.9149 122.453 11.4512C122.385 8.81882 121.291 6.31728 119.406 4.47994C117.521 2.64259 114.993 1.6148 112.361 1.6157H86.5468V33.4045H97.9505V25.0736C98.0048 24.2252 98.353 23.4223 98.935 22.8031C99.517 22.1838 100.297 21.7869 101.139 21.6806C101.961 21.5551 102.802 21.6584 103.569 21.979C104.336 22.2996 105 22.8252 105.489 23.4983L112.361 33.4247H126.066L117.428 21.3474Z"/>
<path d="M158.309 27.8203C157.178 27.8247 156.087 27.3947 155.263 26.6188C154.439 25.8429 153.943 24.7802 153.879 23.6497C153.913 22.496 154.394 21.4008 155.221 20.596C156.048 19.7912 157.156 19.34 158.309 19.3379H164.072C165.232 19.3269 166.35 19.7729 167.184 20.5796C168.019 21.3863 168.503 22.489 168.532 23.6497C168.508 24.7747 168.041 25.8445 167.232 26.6258C166.422 27.4071 165.337 27.8365 164.213 27.8203H158.309ZM157.865 7.15955H163.204C163.734 7.14612 164.261 7.23735 164.756 7.42803C165.251 7.61871 165.704 7.9051 166.088 8.27083C166.472 8.63656 166.781 9.07447 166.996 9.55954C167.211 10.0446 167.328 10.5673 167.341 11.0978C167.315 12.162 166.87 13.1728 166.102 13.9103C165.335 14.6478 164.308 15.0524 163.244 15.0361H157.865C156.812 15.0364 155.8 14.6247 155.046 13.8889C154.292 13.1531 153.855 12.1515 153.828 11.0978C153.855 10.0441 154.292 9.04249 155.046 8.30669C155.8 7.57089 156.812 7.15922 157.865 7.15955ZM175.879 17.2576C175.781 17.1618 175.704 17.0469 175.652 16.9202C175.6 16.7935 175.574 16.6575 175.576 16.5205C175.576 16.1671 175.96 15.9752 176.252 15.753C177.104 15.0258 177.775 14.1092 178.209 13.0764C178.644 12.0436 178.831 10.9233 178.755 9.80525C178.734 7.55104 177.82 5.39733 176.213 3.8166C174.607 2.23587 172.44 1.3572 170.187 1.37334H143.767V33.4045H170.783C171.965 33.4165 173.138 33.195 174.235 32.7526C175.332 32.3102 176.331 31.6557 177.175 30.8265C178.018 29.9973 178.69 29.0097 179.152 27.9203C179.614 26.8309 179.856 25.6611 179.865 24.4778C179.905 23.0302 179.558 21.5983 178.861 20.3292C178.164 19.0602 177.142 18 175.899 17.2576"/>
<path d="M203.853 22.4279C203.853 22.5087 203.48 22.65 203.48 22.65H196.547C196.461 22.6618 196.374 22.6523 196.293 22.6224C196.212 22.5924 196.14 22.543 196.083 22.4784C196.046 22.3395 196.022 22.1975 196.012 22.0542L199.453 12.3197C199.453 12.3197 199.726 11.8653 199.938 11.8653C200.15 11.8653 200.513 12.3197 200.513 12.3197L203.974 22.0138C203.943 22.1544 203.903 22.2927 203.853 22.4279ZM208.506 1.37334H191.501L180.006 33.4045H191.955L193.883 28.103C193.939 27.9061 194.032 27.7213 194.155 27.5577C194.361 27.4005 194.599 27.2902 194.851 27.2346H204.943C205.224 27.2724 205.499 27.3471 205.761 27.4567C205.961 27.6667 206.119 27.9136 206.225 28.1838L208.082 33.4348H220L208.506 1.37334Z"/>
</mask>
<path d="M26.8339 33.4045V22.2966C26.8389 22.1654 26.8157 22.0346 26.7659 21.9131C26.7161 21.7915 26.6409 21.6821 26.5452 21.5922C26.4496 21.5022 26.3358 21.4338 26.2115 21.3916C26.0873 21.3494 25.9554 21.3343 25.8248 21.3474H12.3826C12.1407 21.3604 11.9133 21.4664 11.7478 21.6433C11.5823 21.8202 11.4915 22.0543 11.4945 22.2966V33.4045H0V1.6157H11.4945V13.5718C11.4863 13.6965 11.5028 13.8217 11.543 13.94C11.5832 14.0583 11.6464 14.1675 11.7289 14.2613C11.8114 14.3551 11.9117 14.4317 12.0238 14.4867C12.136 14.5417 12.2579 14.5739 12.3826 14.5816H25.855C25.9907 14.5941 26.1274 14.5765 26.2555 14.5301C26.3835 14.4838 26.4998 14.4098 26.5961 14.3134C26.6925 14.217 26.7664 14.1007 26.8127 13.9725C26.859 13.8443 26.8766 13.7076 26.8642 13.5718V1.6157H38.2477V33.4045H26.8339Z" fill="#1191D0"/>
<path d="M139.367 1.6157H127.883V33.4045H139.367V1.6157Z" fill="#1191D0"/>
<path d="M62.3468 29.9005C56.5945 29.9005 54.5862 22.9732 54.7174 17.3283C54.8385 11.9561 56.7358 5.63474 62.2358 5.55395C67.7358 5.47317 69.9055 11.7643 70.1174 17.2576C70.3193 23.0035 68.1697 29.9308 62.3468 29.9005ZM62.3468 0C50.8523 0 41.5073 6.897 41.5073 17.3283C41.5073 27.9414 49.5807 35 62.7807 35C74.467 35 83.7817 27.9313 83.6505 17.3586C83.4486 6.15984 74.1743 0 62.3468 0Z" fill="#1191D0"/>
<path d="M106.609 15.8742H101.563C100.415 15.8913 99.3056 15.4619 98.4679 14.6764C97.6302 13.8909 97.1299 12.8106 97.0725 11.6633C97.1298 10.5141 97.6294 9.43175 98.4665 8.643C99.3037 7.85424 100.413 7.42033 101.563 7.4322H106.609C107.737 7.43715 108.818 7.88201 109.622 8.67217C110.427 9.46232 110.892 10.5354 110.918 11.6633C110.892 12.7893 110.426 13.8603 109.621 14.6472C108.816 15.4341 107.735 15.8745 106.609 15.8742ZM117.428 21.3474C117.301 21.111 117.232 20.8481 117.226 20.5799C117.226 20.2265 117.589 20.075 117.67 19.863C120.465 17.399 122.453 14.9149 122.453 11.4512C122.385 8.81882 121.291 6.31728 119.406 4.47994C117.521 2.64259 114.993 1.6148 112.361 1.6157H86.5468V33.4045H97.9505V25.0736C98.0048 24.2252 98.353 23.4223 98.935 22.8031C99.517 22.1838 100.297 21.7869 101.139 21.6806C101.961 21.5551 102.802 21.6584 103.569 21.979C104.336 22.2996 105 22.8252 105.489 23.4983L112.361 33.4247H126.066L117.428 21.3474Z" fill="#1191D0"/>
<path d="M158.309 27.8203C157.178 27.8247 156.087 27.3947 155.263 26.6188C154.439 25.8429 153.943 24.7802 153.879 23.6497C153.913 22.496 154.394 21.4008 155.221 20.596C156.048 19.7912 157.156 19.34 158.309 19.3379H164.072C165.232 19.3269 166.35 19.7729 167.184 20.5796C168.019 21.3863 168.503 22.489 168.532 23.6497C168.508 24.7747 168.041 25.8445 167.232 26.6258C166.422 27.4071 165.337 27.8365 164.213 27.8203H158.309ZM157.865 7.15955H163.204C163.734 7.14612 164.261 7.23735 164.756 7.42803C165.251 7.61871 165.704 7.9051 166.088 8.27083C166.472 8.63656 166.781 9.07447 166.996 9.55954C167.211 10.0446 167.328 10.5673 167.341 11.0978C167.315 12.162 166.87 13.1728 166.102 13.9103C165.335 14.6478 164.308 15.0524 163.244 15.0361H157.865C156.812 15.0364 155.8 14.6247 155.046 13.8889C154.292 13.1531 153.855 12.1515 153.828 11.0978C153.855 10.0441 154.292 9.04249 155.046 8.30669C155.8 7.57089 156.812 7.15922 157.865 7.15955ZM175.879 17.2576C175.781 17.1618 175.704 17.0469 175.652 16.9202C175.6 16.7935 175.574 16.6575 175.576 16.5205C175.576 16.1671 175.96 15.9752 176.252 15.753C177.104 15.0258 177.775 14.1092 178.209 13.0764C178.644 12.0436 178.831 10.9233 178.755 9.80525C178.734 7.55104 177.82 5.39733 176.213 3.8166C174.607 2.23587 172.44 1.3572 170.187 1.37334H143.767V33.4045H170.783C171.965 33.4165 173.138 33.195 174.235 32.7526C175.332 32.3102 176.331 31.6557 177.175 30.8265C178.018 29.9973 178.69 29.0097 179.152 27.9203C179.614 26.8309 179.856 25.6611 179.865 24.4778C179.905 23.0302 179.558 21.5983 178.861 20.3292C178.164 19.0602 177.142 18 175.899 17.2576" fill="#1191D0"/>
<path d="M203.853 22.4279C203.853 22.5087 203.48 22.65 203.48 22.65H196.547C196.461 22.6618 196.374 22.6523 196.293 22.6224C196.212 22.5924 196.14 22.543 196.083 22.4784C196.046 22.3395 196.022 22.1975 196.012 22.0542L199.453 12.3197C199.453 12.3197 199.726 11.8653 199.938 11.8653C200.15 11.8653 200.513 12.3197 200.513 12.3197L203.974 22.0138C203.943 22.1544 203.903 22.2927 203.853 22.4279ZM208.506 1.37334H191.501L180.006 33.4045H191.955L193.883 28.103C193.939 27.9061 194.032 27.7213 194.155 27.5577C194.361 27.4005 194.599 27.2902 194.851 27.2346H204.943C205.224 27.2724 205.499 27.3471 205.761 27.4567C205.961 27.6667 206.119 27.9136 206.225 28.1838L208.082 33.4348H220L208.506 1.37334Z" fill="#1191D0"/>
<path d="M26.8339 33.4045H25.8339V34.4045H26.8339V33.4045ZM26.8339 22.2966L25.8347 22.2587L25.8339 22.2776V22.2966H26.8339ZM25.8248 21.3474V22.3474H25.8747L25.9245 22.3424L25.8248 21.3474ZM12.3826 21.3474V20.3474H12.3557L12.3288 20.3488L12.3826 21.3474ZM11.4945 22.2966H12.4946L12.4944 22.2844L11.4945 22.2966ZM11.4945 33.4045V34.4045H12.4945V33.4045H11.4945ZM0 33.4045H-1V34.4045H0V33.4045ZM0 1.6157V0.615695H-1V1.6157H0ZM11.4945 1.6157H12.4945V0.615695H11.4945V1.6157ZM11.4945 13.5718L12.4923 13.6375L12.4945 13.6047V13.5718H11.4945ZM12.3826 14.5816L12.3209 15.5797L12.3517 15.5816H12.3826V14.5816ZM25.855 14.5816L25.9462 13.5858L25.9007 13.5816H25.855V14.5816ZM26.8642 13.5718H25.8642V13.6175L25.8684 13.6629L26.8642 13.5718ZM26.8642 1.6157V0.615695H25.8642V1.6157H26.8642ZM38.2477 1.6157H39.2477V0.615695H38.2477V1.6157ZM38.2477 33.4045V34.4045H39.2477V33.4045H38.2477ZM127.883 1.6157V0.615695H126.883V1.6157H127.883ZM139.367 1.6157H140.367V0.615695H139.367V1.6157ZM139.367 33.4045V34.4045H140.367V33.4045H139.367ZM127.883 33.4045H126.883V34.4045H127.883V33.4045ZM62.3468 29.9005L62.352 28.9005H62.3468V29.9005ZM54.7174 17.3283L55.7172 17.3516L55.7172 17.3509L54.7174 17.3283ZM70.1174 17.2576L71.1168 17.2225L71.1167 17.2191L70.1174 17.2576ZM83.6505 17.3586L84.6504 17.3462L84.6503 17.3406L83.6505 17.3586ZM106.609 15.8742L106.609 14.8742H106.609V15.8742ZM101.563 15.8742V14.8742H101.556L101.548 14.8743L101.563 15.8742ZM97.0725 11.6633L96.0737 11.6135L96.0712 11.6634L96.0737 11.7133L97.0725 11.6633ZM101.563 7.4322L101.553 8.4322H101.563V7.4322ZM106.609 7.4322L106.614 6.4322H106.609V7.4322ZM110.918 11.6633L111.918 11.6867L111.919 11.6634L111.918 11.64L110.918 11.6633ZM117.428 21.3474L116.546 21.8195L116.577 21.8765L116.614 21.9291L117.428 21.3474ZM117.226 20.5799L116.226 20.5799V20.5912L116.226 20.6026L117.226 20.5799ZM117.67 19.863L117.008 19.1128L116.823 19.2762L116.735 19.5072L117.67 19.863ZM122.453 11.4512H123.453V11.4382L123.453 11.4253L122.453 11.4512ZM112.361 1.6157L112.361 2.6157L112.362 2.6157L112.361 1.6157ZM86.5468 1.6157V0.615695H85.5468V1.6157H86.5468ZM86.5468 33.4045H85.5468V34.4045H86.5468V33.4045ZM97.9505 33.4045V34.4045H98.9505V33.4045H97.9505ZM97.9505 25.0736L96.9525 25.0096L96.9505 25.0416V25.0736H97.9505ZM101.139 21.6806L101.265 22.6728L101.277 22.6711L101.29 22.6692L101.139 21.6806ZM105.489 23.4983L106.311 22.929L106.305 22.9199L106.298 22.9108L105.489 23.4983ZM112.361 33.4247L111.539 33.9939L111.838 34.4247H112.361V33.4247ZM126.066 33.4247V34.4247H128.011L126.879 32.8429L126.066 33.4247ZM158.309 27.8203L158.309 26.8202L158.305 26.8203L158.309 27.8203ZM153.879 23.6497L152.879 23.6202L152.878 23.6635L152.881 23.7068L153.879 23.6497ZM158.309 19.3379L158.309 18.3378L158.307 18.3379L158.309 19.3379ZM164.072 19.3379V20.3379L164.081 20.3378L164.072 19.3379ZM168.532 23.6497L169.532 23.6709L169.532 23.6478L169.532 23.6247L168.532 23.6497ZM164.213 27.8203L164.227 26.8204L164.22 26.8203H164.213V27.8203ZM157.865 7.15955L157.865 8.15955H157.865V7.15955ZM163.204 7.15955V8.15955H163.216L163.229 8.15923L163.204 7.15955ZM167.341 11.0978L168.341 11.1227L168.342 11.0979L168.341 11.0731L167.341 11.0978ZM163.244 15.0361L163.259 14.0362L163.252 14.0361H163.244V15.0361ZM157.865 15.0361L157.865 14.0361L157.865 14.0361L157.865 15.0361ZM153.828 11.0978L152.829 11.0728L152.828 11.0978L152.829 11.1228L153.828 11.0978ZM175.576 16.5205L176.576 16.5362L176.576 16.5283V16.5205H175.576ZM176.252 15.753L176.857 16.5495L176.88 16.5323L176.901 16.5137L176.252 15.753ZM178.755 9.80525L177.755 9.81471L177.755 9.84376L177.757 9.87275L178.755 9.80525ZM170.187 1.37334L170.187 2.37337L170.194 2.37332L170.187 1.37334ZM143.767 1.37334V0.373341H142.767V1.37334H143.767ZM143.767 33.4045H142.767V34.4045H143.767V33.4045ZM170.783 33.4045L170.793 32.4045H170.783V33.4045ZM179.865 24.4778L178.866 24.4504L178.865 24.4602L178.865 24.47L179.865 24.4778ZM203.853 22.4279L202.914 22.0835L202.853 22.2503V22.4279H203.853ZM203.48 22.65V23.65H203.663L203.834 23.5852L203.48 22.65ZM196.547 22.65V21.65H196.478L196.41 21.6594L196.547 22.65ZM196.083 22.4784L195.116 22.7352L195.177 22.9644L195.334 23.1418L196.083 22.4784ZM196.012 22.0542L195.069 21.7209L195 21.917L195.014 22.1245L196.012 22.0542ZM199.453 12.3197L198.596 11.8054L198.544 11.8916L198.51 11.9864L199.453 12.3197ZM200.513 12.3197L201.455 11.9834L201.398 11.8259L201.294 11.6952L200.513 12.3197ZM203.974 22.0138L204.951 22.2297L205.013 21.9487L204.916 21.6776L203.974 22.0138ZM208.506 1.37334L209.447 1.03586L209.209 0.373341H208.506V1.37334ZM191.501 1.37334V0.373341H190.797L190.56 1.03558L191.501 1.37334ZM180.006 33.4045L179.065 33.0667L178.585 34.4045H180.006V33.4045ZM191.955 33.4045V34.4045H192.656L192.895 33.7462L191.955 33.4045ZM193.883 28.103L194.822 28.4447L194.834 28.4127L194.843 28.3799L193.883 28.103ZM194.155 27.5577L193.548 26.763L193.439 26.8462L193.357 26.9555L194.155 27.5577ZM194.851 27.2346V26.2346H194.743L194.636 26.2579L194.851 27.2346ZM204.943 27.2346L205.076 26.2435L205.01 26.2346H204.943V27.2346ZM205.761 27.4567L206.484 26.7665L206.34 26.6153L206.147 26.5345L205.761 27.4567ZM206.225 28.1838L207.168 27.8504L207.162 27.834L207.155 27.8178L206.225 28.1838ZM208.082 33.4348L207.139 33.7682L207.375 34.4348H208.082V33.4348ZM220 33.4348V34.4348H221.421L220.941 33.0973L220 33.4348ZM27.8339 33.4045V22.2966H25.8339V33.4045H27.8339ZM27.8332 22.3345C27.8436 22.0606 27.7952 21.7875 27.6912 21.5338L25.8406 22.2923C25.8363 22.2816 25.8342 22.2702 25.8347 22.2587L27.8332 22.3345ZM27.6912 21.5338C27.5873 21.2801 27.4301 21.0516 27.2304 20.8638L25.8601 22.3206C25.8516 22.3126 25.845 22.303 25.8406 22.2923L27.6912 21.5338ZM27.2304 20.8638C27.0306 20.6759 26.7929 20.533 26.5333 20.4448L25.8898 22.3384C25.8787 22.3347 25.8686 22.3286 25.8601 22.3206L27.2304 20.8638ZM26.5333 20.4448C26.2736 20.3565 25.998 20.325 25.7251 20.3524L25.9245 22.3424C25.9127 22.3436 25.9009 22.3422 25.8898 22.3384L26.5333 20.4448ZM25.8248 20.3474H12.3826V22.3474H25.8248V20.3474ZM12.3288 20.3488C11.8292 20.3757 11.3594 20.5948 11.0176 20.9601L12.478 22.3265C12.4673 22.338 12.4523 22.3451 12.4363 22.3459L12.3288 20.3488ZM11.0176 20.9601C10.6758 21.3254 10.4885 21.8087 10.4946 22.3088L12.4944 22.2844C12.4946 22.2999 12.4888 22.315 12.478 22.3265L11.0176 20.9601ZM10.4945 22.2966V33.4045H12.4945V22.2966H10.4945ZM11.4945 32.4045H0V34.4045H11.4945V32.4045ZM1 33.4045V1.6157H-1V33.4045H1ZM0 2.6157H11.4945V0.615695H0V2.6157ZM10.4945 1.6157V13.5718H12.4945V1.6157H10.4945ZM10.4967 13.5061C10.4798 13.7621 10.5136 14.019 10.5962 14.2619L12.4898 13.6181C12.4919 13.6243 12.4928 13.6309 12.4923 13.6375L10.4967 13.5061ZM10.5962 14.2619C10.6788 14.5048 10.8085 14.729 10.978 14.9217L12.4798 13.6009C12.4843 13.606 12.4876 13.6118 12.4898 13.6181L10.5962 14.2619ZM10.978 14.9217C11.1475 15.1144 11.3533 15.2717 11.5838 15.3847L12.4639 13.5887C12.47 13.5917 12.4754 13.5959 12.4798 13.6009L10.978 14.9217ZM11.5838 15.3847C11.8142 15.4976 12.0647 15.5639 12.3209 15.5797L12.4443 13.5836C12.4511 13.584 12.4578 13.5857 12.4639 13.5887L11.5838 15.3847ZM12.3826 15.5816H25.855V13.5816H12.3826V15.5816ZM25.7639 15.5775C26.0457 15.6033 26.3297 15.5667 26.5958 15.4704L25.9151 13.5898C25.925 13.5862 25.9357 13.5848 25.9462 13.5858L25.7639 15.5775ZM26.5958 15.4704C26.8619 15.3741 27.1035 15.2204 27.3035 15.0203L25.8888 13.6065C25.8962 13.5991 25.9052 13.5934 25.9151 13.5898L26.5958 15.4704ZM27.3035 15.0203C27.5035 14.8202 27.657 14.5785 27.7532 14.3125L25.8723 13.6325C25.8758 13.6228 25.8814 13.6139 25.8888 13.6065L27.3035 15.0203ZM27.7532 14.3125C27.8493 14.0464 27.8858 13.7625 27.8601 13.4808L25.8684 13.6629C25.8674 13.6526 25.8688 13.6423 25.8723 13.6325L27.7532 14.3125ZM27.8642 13.5718V1.6157H25.8642V13.5718H27.8642ZM26.8642 2.6157H38.2477V0.615695H26.8642V2.6157ZM37.2477 1.6157V33.4045H39.2477V1.6157H37.2477ZM38.2477 32.4045H26.8339V34.4045H38.2477V32.4045ZM127.883 2.6157H139.367V0.615695H127.883V2.6157ZM138.367 1.6157V33.4045H140.367V1.6157H138.367ZM139.367 32.4045H127.883V34.4045H139.367V32.4045ZM128.883 33.4045V1.6157H126.883V33.4045H128.883ZM62.3468 28.9005C59.9711 28.9005 58.3191 27.5074 57.2223 25.2881C56.1114 23.0406 55.6539 20.0716 55.7172 17.3516L53.7177 17.3051C53.6497 20.2299 54.1308 23.547 55.4293 26.1743C56.7419 28.8299 58.9701 30.9005 62.3468 30.9005V28.9005ZM55.7172 17.3509C55.7758 14.7487 56.2665 11.9943 57.3466 9.91844C58.4088 7.87713 59.9735 6.58729 62.2505 6.55384L62.2211 4.55406C58.9981 4.6014 56.8642 6.51266 55.5724 8.99529C54.2987 11.4433 53.7801 14.5358 53.7177 17.3058L55.7172 17.3509ZM62.2505 6.55384C64.5276 6.5204 66.1515 7.77094 67.2866 9.80315C68.4396 11.8674 69.0158 14.6418 69.1182 17.2962L71.1167 17.2191C71.0072 14.3801 70.3925 11.2623 69.0327 8.82784C67.655 6.36134 65.444 4.50672 62.2211 4.55406L62.2505 6.55384ZM69.1181 17.2928C69.215 20.0524 68.7413 23.0403 67.5995 25.293C66.4724 27.5164 64.7711 28.9131 62.352 28.9005L62.3416 30.9004C65.7454 30.9182 68.0304 28.8663 69.3834 26.1972C70.7215 23.5573 71.2217 20.2087 71.1168 17.2225L69.1181 17.2928ZM62.3468 -1C50.5165 -1 40.5073 6.15063 40.5073 17.3283H42.5073C42.5073 7.64336 51.1881 1 62.3468 1V-1ZM40.5073 17.3283C40.5073 22.9076 42.6394 27.6136 46.5496 30.9088C50.4426 34.1894 56.0102 36 62.7807 36V34C56.3513 34 51.2821 32.2814 47.8384 29.3794C44.412 26.492 42.5073 22.3622 42.5073 17.3283H40.5073ZM62.7807 36C74.8137 36 84.7908 28.6656 84.6504 17.3462L82.6505 17.371C82.7725 27.1971 74.1203 34 62.7807 34V36ZM84.6503 17.3406C84.5439 11.4379 82.0319 6.81283 77.9679 3.68711C73.9295 0.58102 68.4224 -1 62.3468 -1V1C68.0987 1 73.1425 2.4989 76.7486 5.27243C80.3291 8.02632 82.5552 12.0806 82.6506 17.3766L84.6503 17.3406ZM106.609 14.8742H101.563V16.8742H106.609V14.8742ZM101.548 14.8743C100.66 14.8876 99.8006 14.5552 99.1519 13.9469L97.7839 15.4059C98.8107 16.3687 100.171 16.8951 101.578 16.8741L101.548 14.8743ZM99.1519 13.9469C98.5032 13.3387 98.1157 12.5021 98.0712 11.6133L96.0737 11.7133C96.1441 13.1192 96.7571 14.4431 97.7839 15.4059L99.1519 13.9469ZM98.0712 11.7131C98.1157 10.8218 98.5032 9.98242 99.1523 9.37084L97.7808 7.91516C96.7556 8.88109 96.1439 10.2065 96.0737 11.6135L98.0712 11.7131ZM99.1523 9.37084C99.8014 8.75928 100.662 8.42295 101.553 8.43214L101.574 6.43225C100.165 6.41772 98.806 6.94921 97.7808 7.91516L99.1523 9.37084ZM101.563 8.4322H106.609V6.4322H101.563V8.4322ZM106.605 8.43219C107.472 8.436 108.303 8.77802 108.922 9.38571L110.323 7.95862C109.332 6.986 108.002 6.43831 106.614 6.43221L106.605 8.43219ZM108.922 9.38571C109.541 9.99342 109.898 10.8189 109.919 11.6866L111.918 11.64C111.886 10.252 111.314 8.93123 110.323 7.95862L108.922 9.38571ZM109.919 11.6399C109.898 12.5049 109.541 13.3276 108.922 13.932L110.32 15.3624C111.312 14.3929 111.886 13.0736 111.918 11.6867L109.919 11.6399ZM108.922 13.932C108.304 14.5363 107.474 14.8744 106.609 14.8742L106.609 16.8742C107.996 16.8746 109.328 16.3319 110.32 15.3624L108.922 13.932ZM118.309 20.8752C118.257 20.7773 118.228 20.6684 118.225 20.5573L116.226 20.6026C116.236 21.0277 116.345 21.4446 116.546 21.8195L118.309 20.8752ZM118.226 20.5799C118.226 20.7904 118.1 20.9033 118.15 20.8493C118.162 20.8361 118.176 20.8217 118.204 20.7939C118.227 20.7707 118.265 20.7321 118.303 20.6904C118.371 20.6168 118.515 20.4539 118.604 20.2188L116.735 19.5072C116.784 19.3781 116.852 19.3135 116.829 19.339C116.822 19.347 116.811 19.3581 116.784 19.3857C116.761 19.4088 116.723 19.4465 116.685 19.4875C116.533 19.6507 116.226 20.016 116.226 20.5799H118.226ZM118.331 20.6131C121.176 18.1052 123.453 15.3662 123.453 11.4512H121.453C121.453 14.4635 119.754 16.6928 117.008 19.1128L118.331 20.6131ZM123.453 11.4253C123.378 8.53235 122.176 5.78315 120.104 3.7638L118.708 5.19608C120.407 6.85142 121.392 9.10529 121.454 11.4772L123.453 11.4253ZM120.104 3.7638C118.032 1.74443 115.254 0.614717 112.361 0.615695L112.362 2.6157C114.732 2.61489 117.01 3.54075 118.708 5.19608L120.104 3.7638ZM112.361 0.615695H86.5468V2.6157H112.361V0.615695ZM85.5468 1.6157V33.4045H87.5468V1.6157H85.5468ZM86.5468 34.4045H97.9505V32.4045H86.5468V34.4045ZM98.9505 33.4045V25.0736H96.9505V33.4045H98.9505ZM98.9484 25.1375C98.9879 24.5211 99.2409 23.9378 99.6637 23.4879L98.2063 22.1182C97.465 22.9069 97.0217 23.9294 96.9525 25.0096L98.9484 25.1375ZM99.6637 23.4879C100.086 23.0381 100.653 22.7499 101.265 22.6728L101.014 20.6885C99.9406 20.8239 98.9476 21.3295 98.2063 22.1182L99.6637 23.4879ZM101.29 22.6692C101.931 22.5714 102.586 22.6518 103.183 22.9016L103.955 21.0563C103.018 20.6649 101.992 20.5389 100.989 20.6921L101.29 22.6692ZM103.183 22.9016C103.781 23.1514 104.299 23.5611 104.68 24.0857L106.298 22.9108C105.702 22.0893 104.891 21.4477 103.955 21.0563L103.183 22.9016ZM104.667 24.0675L111.539 33.9939L113.184 32.8555L106.311 22.929L104.667 24.0675ZM112.361 34.4247H126.066V32.4247H112.361V34.4247ZM126.879 32.8429L118.241 20.7656L116.614 21.9291L125.253 34.0065L126.879 32.8429ZM158.305 26.8203C157.43 26.8237 156.586 26.491 155.949 25.8906L154.578 27.3469C155.588 28.2983 156.925 28.8257 158.313 28.8202L158.305 26.8203ZM155.949 25.8906C155.311 25.2902 154.927 24.4678 154.877 23.5927L152.881 23.7068C152.96 25.0927 153.567 26.3955 154.578 27.3469L155.949 25.8906ZM154.878 23.6793C154.905 22.785 155.278 21.9362 155.919 21.3126L154.524 19.8794C153.511 20.8654 152.921 22.207 152.879 23.6202L154.878 23.6793ZM155.919 21.3126C156.56 20.689 157.417 20.3395 158.311 20.3378L158.307 18.3379C156.894 18.3405 155.537 18.8934 154.524 19.8794L155.919 21.3126ZM158.309 20.3379H164.072V18.3379H158.309V20.3379ZM164.081 20.3378C164.979 20.3293 165.844 20.6743 166.489 21.2986L167.879 19.8606C166.856 18.8714 165.485 18.3244 164.062 18.3379L164.081 20.3378ZM166.489 21.2986C167.135 21.9229 167.51 22.7763 167.532 23.6748L169.532 23.6247C169.496 22.2018 168.903 20.8498 167.879 19.8606L166.489 21.2986ZM167.532 23.6285C167.514 24.4897 167.156 25.3085 166.537 25.9064L167.926 27.3452C168.925 26.3805 169.502 25.0597 169.532 23.6709L167.532 23.6285ZM166.537 25.9064C165.918 26.5043 165.087 26.8328 164.227 26.8204L164.198 28.8201C165.587 28.8402 166.927 28.3099 167.926 27.3452L166.537 25.9064ZM157.865 8.15955H163.204V6.15955H157.865V8.15955ZM163.229 8.15923C163.628 8.14913 164.025 8.21774 164.397 8.36117L165.116 6.4949C164.498 6.25696 163.84 6.14311 163.178 6.15987L163.229 8.15923ZM164.397 8.36117C164.769 8.50459 165.109 8.72002 165.399 8.99517L166.777 7.54649C166.298 7.09017 165.733 6.73283 165.116 6.4949L164.397 8.36117ZM165.399 8.99517C165.688 9.27033 165.92 9.59982 166.082 9.96484L167.91 9.15424C167.642 8.54913 167.257 8.0028 166.777 7.54649L165.399 8.99517ZM166.082 9.96484C166.243 10.3299 166.332 10.7232 166.342 11.1225L168.341 11.0731C168.325 10.4114 168.178 9.75935 167.91 9.15424L166.082 9.96484ZM166.342 11.0729C166.322 11.8739 165.987 12.6345 165.409 13.1893L166.795 14.6312C167.753 13.7111 168.308 12.4502 168.341 11.1227L166.342 11.0729ZM165.409 13.1893C164.832 13.7442 164.059 14.0484 163.259 14.0362L163.229 16.0359C164.556 16.0563 165.838 15.5514 166.795 14.6312L165.409 13.1893ZM163.244 14.0361H157.865V16.0361H163.244V14.0361ZM157.865 14.0361C157.073 14.0363 156.312 13.7267 155.744 13.1731L154.348 14.6047C155.289 15.5227 156.551 16.0365 157.865 16.0361L157.865 14.0361ZM155.744 13.1731C155.177 12.6196 154.848 11.8658 154.828 11.0728L152.829 11.1228C152.862 12.4371 153.407 13.6867 154.348 14.6047L155.744 13.1731ZM154.828 11.1228C154.848 10.3298 155.177 9.57606 155.744 9.02247L154.348 7.59091C153.407 8.50892 152.862 9.75848 152.829 11.0728L154.828 11.1228ZM155.744 9.02247C156.312 8.46891 157.073 8.1593 157.865 8.15955L157.865 6.15955C156.551 6.15914 155.289 6.67288 154.348 7.59091L155.744 9.02247ZM176.579 16.5436C176.578 16.5427 176.577 16.5416 176.577 16.5403L174.727 17.3001C174.83 17.5523 174.984 17.7808 175.179 17.9717L176.579 16.5436ZM176.577 16.5403C176.576 16.539 176.576 16.5376 176.576 16.5362L174.576 16.5048C174.572 16.7773 174.623 17.0479 174.727 17.3001L176.577 16.5403ZM176.576 16.5205C176.576 16.6246 176.545 16.7153 176.51 16.7776C176.48 16.8298 176.456 16.8467 176.476 16.8289C176.496 16.8105 176.531 16.7828 176.602 16.7323C176.619 16.7204 176.636 16.7082 176.656 16.6947C176.674 16.6816 176.695 16.6668 176.716 16.652C176.758 16.6224 176.807 16.5875 176.857 16.5495L175.648 14.9565C175.591 14.9994 175.544 15.0308 175.444 15.1016C175.361 15.1606 175.246 15.2446 175.133 15.3462C174.912 15.5467 174.576 15.9319 174.576 16.5205H176.576ZM176.901 16.5137C177.872 15.6852 178.636 14.6408 179.131 13.4642L177.287 12.6885C176.913 13.5775 176.337 14.3665 175.603 14.9924L176.901 16.5137ZM179.131 13.4642C179.626 12.2876 179.839 11.0114 179.753 9.73775L177.757 9.87275C177.822 10.8352 177.662 11.7995 177.287 12.6885L179.131 13.4642ZM179.755 9.79579C179.731 7.27698 178.71 4.87033 176.915 3.10386L175.512 4.52934C176.93 5.92433 177.736 7.8251 177.755 9.81471L179.755 9.79579ZM176.915 3.10386C175.12 1.33736 172.698 0.355321 170.18 0.373367L170.194 2.37332C172.182 2.35907 174.095 3.13437 175.512 4.52934L176.915 3.10386ZM170.187 0.373341H143.767V2.37334H170.187V0.373341ZM142.767 1.37334V33.4045H144.767V1.37334H142.767ZM143.767 34.4045H170.783V32.4045H143.767V34.4045ZM170.772 34.4044C172.087 34.4178 173.39 34.1716 174.609 33.68L173.861 31.8252C172.886 32.2183 171.844 32.4152 170.793 32.4046L170.772 34.4044ZM174.609 33.68C175.828 33.1884 176.938 32.4611 177.875 31.5397L176.474 30.1133C175.724 30.8503 174.836 31.432 173.861 31.8252L174.609 33.68ZM177.875 31.5397C178.813 30.6183 179.56 29.521 180.073 28.3105L178.231 27.5301C177.821 28.4985 177.223 29.3763 176.474 30.1133L177.875 31.5397ZM180.073 28.3105C180.586 27.1001 180.855 25.8003 180.865 24.4856L178.865 24.47C178.857 25.5218 178.641 26.5617 178.231 27.5301L180.073 28.3105ZM180.865 24.5052C180.909 22.8801 180.52 21.2725 179.738 19.8478L177.985 20.8107C178.596 21.924 178.9 23.1804 178.866 24.4504L180.865 24.5052ZM179.738 19.8478C178.955 18.4231 177.807 17.2327 176.412 16.3992L175.386 18.1161C176.476 18.7673 177.373 19.6974 177.985 20.8107L179.738 19.8478ZM202.853 22.4279C202.853 22.2392 202.907 22.0908 202.954 21.9967C203.001 21.9033 203.053 21.8376 203.087 21.7998C203.15 21.7275 203.207 21.6876 203.22 21.6786C203.25 21.6573 203.26 21.6551 203.229 21.6701C203.206 21.6811 203.179 21.693 203.155 21.7029C203.144 21.7076 203.135 21.7112 203.129 21.7134C203.126 21.7145 203.125 21.7152 203.124 21.7155C203.124 21.7156 203.124 21.7156 203.124 21.7155C203.124 21.7154 203.124 21.7154 203.125 21.7152C203.125 21.7152 203.125 21.7151 203.125 21.7151C203.125 21.715 203.125 21.715 203.125 21.7149C203.125 21.7149 203.126 21.7149 203.126 21.7149C203.126 21.7148 203.126 21.7148 203.48 22.65C203.834 23.5852 203.834 23.5852 203.834 23.5852C203.834 23.5852 203.834 23.5851 203.834 23.5851C203.834 23.5851 203.835 23.585 203.835 23.5849C203.835 23.5848 203.835 23.5847 203.836 23.5846C203.836 23.5844 203.837 23.5841 203.838 23.5837C203.84 23.5831 203.842 23.5823 203.844 23.5814C203.849 23.5795 203.855 23.5771 203.863 23.5742C203.877 23.5683 203.897 23.5602 203.921 23.5504C203.967 23.5314 204.033 23.5028 204.104 23.4684C204.167 23.4379 204.27 23.3853 204.37 23.3147C204.418 23.2811 204.504 23.2169 204.588 23.1214C204.649 23.0515 204.853 22.8072 204.853 22.4279H202.853ZM203.48 21.65H196.547V23.65H203.48V21.65ZM196.41 21.6594C196.488 21.6487 196.567 21.6573 196.64 21.6845L195.946 23.5603C196.182 23.6473 196.435 23.6749 196.683 23.6406L196.41 21.6594ZM196.64 21.6845C196.713 21.7116 196.779 21.7564 196.831 21.8149L195.334 23.1418C195.501 23.3295 195.711 23.4733 195.946 23.5603L196.64 21.6845ZM197.049 22.2215C197.028 22.1437 197.015 22.0642 197.009 21.984L195.014 22.1245C195.029 22.3309 195.063 22.5353 195.116 22.7352L197.049 22.2215ZM196.955 22.3875L200.396 12.653L198.51 11.9864L195.069 21.7209L196.955 22.3875ZM199.453 12.3197C200.311 12.8339 200.311 12.8341 200.311 12.8342C200.311 12.8343 200.311 12.8344 200.311 12.8345C200.31 12.8347 200.31 12.8348 200.31 12.835C200.31 12.8353 200.31 12.8356 200.31 12.8359C200.309 12.8365 200.309 12.837 200.309 12.8373C200.308 12.8381 200.308 12.8385 200.308 12.8385C200.308 12.8386 200.309 12.8374 200.31 12.835C200.313 12.8301 200.319 12.8211 200.327 12.8095C200.344 12.7845 200.365 12.7562 200.384 12.7324C200.409 12.7033 200.409 12.7082 200.382 12.7287C200.368 12.7401 200.328 12.769 200.265 12.7974C200.202 12.8255 200.089 12.8653 199.938 12.8653V10.8653C199.551 10.8653 199.275 11.0576 199.163 11.1438C199.025 11.2495 198.918 11.368 198.848 11.4525C198.773 11.5424 198.712 11.6276 198.671 11.6879C198.65 11.7189 198.633 11.7454 198.62 11.7653C198.614 11.7754 198.609 11.7839 198.605 11.7906C198.603 11.794 198.601 11.7969 198.599 11.7994C198.598 11.8006 198.598 11.8018 198.597 11.8028C198.597 11.8033 198.597 11.8037 198.596 11.8042C198.596 11.8044 198.596 11.8046 198.596 11.8048C198.596 11.8049 198.596 11.8051 198.596 11.8051C198.596 11.8053 198.596 11.8054 199.453 12.3197ZM199.938 12.8653C199.792 12.8653 199.688 12.828 199.643 12.8096C199.594 12.7896 199.566 12.7711 199.562 12.7682C199.555 12.7636 199.571 12.7744 199.609 12.8109C199.642 12.8431 199.675 12.8788 199.701 12.9081C199.713 12.9222 199.723 12.9334 199.728 12.9401C199.731 12.9434 199.733 12.9456 199.734 12.9464C199.734 12.9467 199.734 12.9468 199.734 12.9464C199.733 12.9462 199.733 12.9459 199.733 12.9456C199.733 12.9454 199.733 12.9452 199.732 12.9449C199.732 12.9448 199.732 12.9447 199.732 12.9446C199.732 12.9445 199.732 12.9444 199.732 12.9444C199.732 12.9442 199.732 12.9441 200.513 12.3197C201.294 11.6952 201.294 11.6951 201.294 11.695C201.294 11.695 201.294 11.6948 201.294 11.6948C201.293 11.6946 201.293 11.6944 201.293 11.6943C201.293 11.6939 201.293 11.6935 201.292 11.6931C201.292 11.6923 201.291 11.6914 201.29 11.6903C201.288 11.6883 201.286 11.6857 201.284 11.6828C201.279 11.6769 201.273 11.6693 201.265 11.6602C201.25 11.6421 201.23 11.6178 201.205 11.5892C201.156 11.5334 201.084 11.4554 201 11.3741C200.921 11.2969 200.806 11.1942 200.672 11.1044C200.572 11.038 200.3 10.8653 199.938 10.8653V12.8653ZM199.571 12.6559L203.033 22.3501L204.916 21.6776L201.455 11.9834L199.571 12.6559ZM202.998 21.798C202.976 21.8949 202.949 21.9903 202.914 22.0835L204.792 22.7722C204.857 22.5951 204.91 22.4139 204.951 22.2297L202.998 21.798ZM208.506 0.373341H191.501V2.37334H208.506V0.373341ZM190.56 1.03558L179.065 33.0667L180.948 33.7423L192.442 1.7111L190.56 1.03558ZM180.006 34.4045H191.955V32.4045H180.006V34.4045ZM192.895 33.7462L194.822 28.4447L192.943 27.7613L191.015 33.0628L192.895 33.7462ZM194.843 28.3799C194.866 28.3005 194.904 28.2259 194.953 28.1599L193.357 26.9555C193.16 27.2167 193.012 27.5117 192.922 27.8261L194.843 28.3799ZM194.762 28.3524C194.852 28.2837 194.956 28.2355 195.066 28.2112L194.636 26.2579C194.241 26.3449 193.87 26.5173 193.548 26.763L194.762 28.3524ZM194.851 28.2346H204.943V26.2346H194.851V28.2346ZM204.81 28.2256C205.004 28.2517 205.193 28.3033 205.374 28.379L206.147 26.5345C205.805 26.3909 205.445 26.293 205.076 26.2435L204.81 28.2256ZM205.037 28.147C205.148 28.2633 205.235 28.4001 205.294 28.5497L207.155 27.8178C207.002 27.4272 206.774 27.0701 206.484 26.7665L205.037 28.147ZM205.282 28.5172L207.139 33.7682L209.024 33.1014L207.168 27.8504L205.282 28.5172ZM208.082 34.4348H220V32.4348H208.082V34.4348ZM220.941 33.0973L209.447 1.03586L207.564 1.71082L219.059 33.7723L220.941 33.0973ZM164.213 26.8203H158.309V28.8203H164.213V26.8203Z" fill="black" mask="url(#path-1-inside-1)"/>
</svg>
