<svg width="251" height="40" viewBox="0 0 251 40" fill="none" xmlns="http://www.w3.org/2000/svg">
<path d="M30.6151 38.1766V25.4818C30.6208 25.3318 30.5943 25.1824 30.5375 25.0435C30.4807 24.9046 30.3948 24.7796 30.2857 24.6768C30.1766 24.574 30.0468 24.4958 29.905 24.4475C29.7632 24.3993 29.6127 24.382 29.4637 24.397H14.1274C13.8515 24.4119 13.592 24.5331 13.4032 24.7352C13.2144 24.9374 13.1108 25.2049 13.1142 25.4818V38.1766H0V1.84651H13.1142V15.5107C13.1048 15.6532 13.1236 15.7962 13.1695 15.9314C13.2154 16.0666 13.2875 16.1914 13.3816 16.2986C13.4758 16.4059 13.5901 16.4934 13.7181 16.5562C13.8461 16.6191 13.9852 16.6559 14.1274 16.6647H29.4983C29.653 16.6789 29.809 16.6588 29.9551 16.6058C30.1012 16.5529 30.2339 16.4683 30.3438 16.3582C30.4537 16.248 30.538 16.115 30.5909 15.9686C30.6437 15.8221 30.6638 15.6658 30.6496 15.5107V1.84651H43.6372V38.1766H30.6151Z" fill="#1191D0"/>
<path d="M159.005 1.84651H145.902V38.1766H159.005V1.84651Z" fill="#1191D0"/>
<path d="M71.132 34.172C64.5692 34.172 62.2779 26.255 62.4276 19.8038C62.5658 13.6642 64.7304 6.4397 71.0054 6.34737C77.2804 6.25505 79.7558 13.4449 79.9976 19.723C80.2279 26.2897 77.7755 34.2066 71.132 34.172ZM71.132 0C58.0178 0 47.3561 7.88228 47.3561 19.8038C47.3561 31.9331 56.5671 40 71.6271 40C84.96 40 95.5872 31.9215 95.4376 19.8384C95.2073 7.03982 84.6261 0 71.132 0Z" fill="#1191D0"/>
<path d="M121.631 18.1419H115.874C114.565 18.1615 113.299 17.6708 112.343 16.773C111.387 15.8753 110.816 14.6407 110.751 13.3295C110.816 12.0161 111.386 10.7791 112.341 9.87771C113.297 8.97628 114.563 8.48038 115.874 8.49394H121.631C122.918 8.4996 124.151 9.00801 125.069 9.91105C125.987 10.8141 126.518 12.0405 126.548 13.3295C126.518 14.6163 125.986 15.8403 125.068 16.7396C124.149 17.639 122.916 18.1423 121.631 18.1419ZM133.974 24.397C133.83 24.1268 133.751 23.8263 133.744 23.5199C133.744 23.116 134.158 22.9429 134.25 22.7005C137.44 19.8846 139.708 17.0456 139.708 13.0871C139.63 10.0787 138.382 7.21975 136.232 5.11993C134.081 3.02011 131.197 1.84549 128.194 1.84651H98.742V38.1766H111.753V28.6555C111.815 27.686 112.212 26.7684 112.876 26.0607C113.54 25.3529 114.429 24.8993 115.391 24.7778C116.329 24.6345 117.288 24.7524 118.163 25.1188C119.038 25.4852 119.796 26.0859 120.353 26.8552L128.194 38.1997H143.83L133.974 24.397Z" fill="#1191D0"/>
<path d="M180.616 31.7946C179.325 31.7996 178.081 31.3082 177.141 30.4215C176.201 29.5347 175.636 28.3203 175.562 27.0283C175.601 25.7097 176.15 24.458 177.093 23.5383C178.037 22.6185 179.3 22.1028 180.616 22.1004H187.191C188.515 22.0879 189.79 22.5976 190.742 23.5195C191.694 24.4415 192.247 25.7017 192.28 27.0283C192.253 28.3139 191.719 29.5366 190.796 30.4295C189.873 31.3224 188.635 31.8131 187.352 31.7946H180.616ZM180.11 8.18234H186.201C186.805 8.167 187.407 8.27126 187.972 8.48918C188.537 8.7071 189.053 9.0344 189.491 9.45238C189.93 9.87036 190.282 10.3708 190.527 10.9252C190.772 11.4795 190.906 12.0769 190.921 12.6832C190.891 13.8995 190.383 15.0546 189.508 15.8975C188.632 16.7403 187.46 17.2027 186.247 17.1841H180.11C178.908 17.1845 177.754 16.714 176.893 15.8731C176.033 15.0321 175.534 13.8874 175.504 12.6832C175.534 11.479 176.033 10.3343 176.893 9.49336C177.754 8.65245 178.908 8.18197 180.11 8.18234ZM200.662 19.723C200.55 19.6134 200.462 19.4822 200.403 19.3374C200.343 19.1926 200.314 19.0371 200.316 18.8806C200.316 18.4766 200.754 18.2574 201.088 18.0035C202.06 17.1724 202.825 16.1248 203.32 14.9444C203.816 13.7641 204.03 12.4838 203.943 11.206C203.919 8.62976 202.876 6.16838 201.044 4.36183C199.211 2.55528 196.738 1.55108 194.168 1.56953H164.025V38.1766H194.847C196.197 38.1903 197.535 37.9371 198.786 37.4315C200.038 36.9259 201.177 36.1779 202.14 35.2303C203.103 34.2826 203.869 33.154 204.396 31.9089C204.923 30.6639 205.199 29.3269 205.21 27.9746C205.255 26.3203 204.86 24.6837 204.064 23.2334C203.269 21.7831 202.103 20.5714 200.685 19.723" fill="#1191D0"/>
<path d="M232.578 25.6318C232.578 25.7242 232.152 25.8857 232.152 25.8857H224.242C224.144 25.8992 224.045 25.8884 223.953 25.8542C223.86 25.8199 223.778 25.7634 223.712 25.6896C223.67 25.5309 223.643 25.3686 223.632 25.2048L227.558 14.0796C227.558 14.0796 227.869 13.5603 228.111 13.5603C228.352 13.5603 228.767 14.0796 228.767 14.0796L232.716 25.1587C232.681 25.3193 232.635 25.4774 232.578 25.6318ZM237.886 1.56953H218.485L205.371 38.1766H219.003L221.202 32.1177C221.267 31.8927 221.372 31.6815 221.513 31.4945C221.748 31.3148 222.019 31.1888 222.308 31.1252H233.821C234.142 31.1684 234.456 31.2538 234.754 31.3791C234.983 31.6191 235.163 31.9013 235.284 32.21L237.402 38.2112H251L237.886 1.56953Z" fill="#1191D0"/>
</svg>
