<svg width="354" height="56" viewBox="0 0 354 56" fill="none" xmlns="http://www.w3.org/2000/svg">
<path d="M43.1783 53.4472V35.6745C43.1863 35.4646 43.149 35.2553 43.0688 35.0609C42.9887 34.8665 42.8676 34.6914 42.7137 34.5475C42.5598 34.4035 42.3767 34.2941 42.1767 34.2266C41.9768 34.159 41.7645 34.1349 41.5544 34.1558H19.9247C19.5356 34.1766 19.1696 34.3463 18.9033 34.6293C18.637 34.9124 18.4909 35.2869 18.4957 35.6745V53.4472H0V2.58511H18.4957V21.7149C18.4825 21.9145 18.509 22.1146 18.5737 22.304C18.6385 22.4933 18.7401 22.668 18.8729 22.8181C19.0057 22.9682 19.1669 23.0908 19.3474 23.1787C19.5279 23.2667 19.7241 23.3183 19.9247 23.3306H41.6031C41.8214 23.3505 42.0413 23.3224 42.2474 23.2482C42.4535 23.174 42.6407 23.0556 42.7956 22.9015C42.9506 22.7473 43.0696 22.561 43.1441 22.356C43.2186 22.1509 43.2469 21.9321 43.227 21.7149V2.58511H61.544V53.4472H43.1783Z" fill="#1191D0"/>
<path d="M224.254 2.58511H205.775V53.4472H224.254V2.58511Z" fill="#1191D0"/>
<path d="M100.322 47.8407C91.0657 47.8407 87.8342 36.7571 88.0453 27.7253C88.2402 19.1298 91.293 9.01558 100.143 8.88632C108.993 8.75707 112.484 18.8228 112.825 27.6122C113.15 36.8055 109.691 47.8892 100.322 47.8407ZM100.322 0C81.826 0 66.7891 11.0352 66.7891 27.7253C66.7891 44.7063 79.7799 56 101.02 56C119.824 56 134.812 44.6901 134.601 27.7738C134.276 9.85574 119.353 0 100.322 0Z" fill="#1191D0"/>
<path d="M171.544 25.3987H163.425C161.577 25.4261 159.792 24.7391 158.444 23.4822C157.096 22.2254 156.291 20.497 156.198 18.6613C156.291 16.8226 157.095 15.0908 158.442 13.8288C159.789 12.5668 161.574 11.8725 163.425 11.8915H171.544C173.358 11.8994 175.098 12.6112 176.392 13.8755C177.687 15.1397 178.435 16.8567 178.478 18.6613C178.435 20.4629 177.686 22.1764 176.39 23.4355C175.095 24.6946 173.355 25.3992 171.544 25.3987ZM188.952 34.1558C188.748 33.7776 188.637 33.3569 188.627 32.9279C188.627 32.3624 189.211 32.12 189.341 31.7807C193.839 27.8384 197.038 23.8638 197.038 18.322C196.928 14.1101 195.169 10.1076 192.135 7.1679C189.102 4.22815 185.034 2.58369 180.8 2.58511H139.262V53.4472H157.611V40.1177C157.699 38.7603 158.259 37.4757 159.195 36.4849C160.132 35.4941 161.386 34.859 162.743 34.689C164.065 34.4882 165.418 34.6534 166.652 35.1663C167.886 35.6793 168.955 36.5203 169.741 37.5972L180.8 53.4795H202.852L188.952 34.1558Z" fill="#1191D0"/>
<path d="M254.734 44.5124C252.913 44.5195 251.159 43.8315 249.832 42.59C248.506 41.3486 247.709 39.6484 247.605 37.8396C247.66 35.9936 248.435 34.2413 249.765 32.9536C251.096 31.6659 252.878 30.944 254.734 30.9406H264.006C265.873 30.923 267.672 31.6366 269.015 32.9274C270.358 34.2181 271.137 35.9824 271.183 37.8396C271.145 39.6395 270.393 41.3512 269.091 42.6013C267.789 43.8514 266.043 44.5384 264.233 44.5124H254.734ZM254.019 11.4553H262.61C263.463 11.4338 264.312 11.5798 265.108 11.8849C265.904 12.1899 266.632 12.6482 267.251 13.2333C267.869 13.8185 268.365 14.5192 268.711 15.2953C269.057 16.0714 269.246 16.9077 269.267 17.7565C269.225 19.4593 268.508 21.0765 267.274 22.2565C266.039 23.4364 264.386 24.0838 262.674 24.0577H254.019C252.324 24.0582 250.696 23.3996 249.483 22.2223C248.269 21.045 247.566 19.4424 247.524 17.7565C247.566 16.0706 248.269 14.468 249.483 13.2907C250.696 12.1134 252.324 11.4548 254.019 11.4553ZM283.005 27.6122C282.848 27.4588 282.723 27.2751 282.64 27.0723C282.556 26.8696 282.514 26.652 282.518 26.4328C282.518 25.8673 283.135 25.5603 283.606 25.2048C284.977 24.0414 286.055 22.5747 286.755 20.9222C287.454 19.2697 287.755 17.4773 287.633 15.6884C287.599 12.0817 286.128 8.63573 283.543 6.10656C280.959 3.57739 277.472 2.17151 273.847 2.19735H231.334V53.4472H274.805C276.707 53.4664 278.595 53.1119 280.36 52.4041C282.125 51.6963 283.732 50.6491 285.09 49.3224C286.447 47.9957 287.529 46.4155 288.272 44.6725C289.014 42.9294 289.405 41.0577 289.419 39.1644C289.483 36.8484 288.926 34.5572 287.804 32.5268C286.682 30.4964 285.037 28.8 283.038 27.6122" fill="#1191D0"/>
<path d="M328.018 35.8846C328.018 36.0138 327.418 36.24 327.418 36.24H316.262C316.124 36.2589 315.984 36.2437 315.854 36.1958C315.723 36.1479 315.607 36.0688 315.515 35.9654C315.455 35.7433 315.417 35.516 315.401 35.2868L320.938 19.7115C320.938 19.7115 321.377 18.9844 321.718 18.9844C322.059 18.9844 322.643 19.7115 322.643 19.7115L328.213 35.2222C328.163 35.447 328.098 35.6684 328.018 35.8846ZM335.504 2.19735H308.142L289.647 53.4472H308.873L311.975 44.9648C312.066 44.6497 312.215 44.354 312.413 44.0923C312.744 43.8408 313.127 43.6643 313.534 43.5753H329.772C330.224 43.6358 330.667 43.7553 331.087 43.9308C331.41 44.2667 331.663 44.6618 331.834 45.0941L334.822 53.4957H354L335.504 2.19735Z" fill="#1191D0"/>
</svg>
