<svg width="124" height="108" viewBox="0 0 124 108" fill="none" xmlns="http://www.w3.org/2000/svg">
<path d="M90.4 70.8C87.994 68.994 85.01 68 82 68H72.834C71.29 68 69.744 67.634 68.362 66.944L63.58 64.554C62.854 64.192 62.044 64 61.236 64C60.808 64 60.398 64.066 60 64.164V38C60 32.486 55.514 28 50 28H32V19.632C33.694 19.028 35.028 17.694 35.632 16H62V12H35.632C34.804 9.678 32.604 8 30 8C26.692 8 24 10.692 24 14C24 16.604 25.678 18.804 28 19.632V28H10C4.486 28 0 32.486 0 38V114C0 119.514 4.486 124 10 124H50C54.972 124 59.076 120.342 59.84 115.582C60.512 115.842 61.236 116 62 116H82C85.01 116 87.994 115.006 90.4 113.2L94.484 110.136L116 114.44V69.56L94.486 73.864L90.4 70.8ZM30 12C31.102 12 32 12.896 32 14C32 15.104 31.102 16 30 16C28.898 16 28 15.104 28 14C28 12.896 28.898 12 30 12ZM38 92H44V96H12V76H44V80H38C34.692 80 32 82.692 32 86C32 89.308 34.692 92 38 92ZM8 72V100H48V92H52.368C52.144 92.628 52 93.296 52 94C52 96.13 53.124 97.994 54.802 99.058C54.306 99.932 54 100.926 54 102C54 102.704 54.144 103.372 54.368 104H4V48H56V69.236C56 73.482 57.812 77.304 60.692 80H48V72H8ZM20 32H40V34C40 35.104 39.102 36 38 36H22C20.898 36 20 35.104 20 34V32ZM10 32H16V34C16 37.308 18.692 40 22 40H38C41.308 40 44 37.308 44 34V32H50C53.308 32 56 34.692 56 38V44H4V38C4 34.692 6.692 32 10 32ZM56 114C56 117.308 53.308 120 50 120H10C6.692 120 4 117.308 4 114V108H56.368C56.144 108.628 56 109.296 56 110V114ZM88 110C86.282 111.29 84.15 112 82 112H62C60.898 112 60 111.104 60 110C60 108.896 60.898 108 62 108H66V104H60C58.898 104 58 103.104 58 102C58 100.896 58.898 100 60 100H66V96H58C56.898 96 56 95.104 56 94C56 92.896 56.898 92 58 92H66V88H38C36.898 88 36 87.104 36 86C36 84.896 36.898 84 38 84H78V80H70.764C64.828 80 60 75.172 60 69.236C60 68.364 61.006 67.736 61.79 68.13L66.572 70.52C68.504 71.488 70.67 72 72.834 72H82C84.15 72 86.282 72.71 88 74L92 77V107L88 110ZM96 77.638L112 74.438V109.56L96 106.36V77.638Z" fill="#93CDE9"/>
<path d="M48 112H52V116H48V112Z" fill="#93CDE9"/>
<path d="M8 112H12V116H8V112Z" fill="#93CDE9"/>
<path d="M24 112H36V116H24V112Z" fill="#93CDE9"/>
<path d="M8 68H28V52H8V68ZM12 56H24V64H12V56Z" fill="#93CDE9"/>
<path d="M52 52H32V68H52V52ZM48 64H36V56H48V64Z" fill="#93CDE9"/>
<path d="M94 60C110.542 60 124 46.542 124 30C124 13.458 110.542 0 94 0C77.458 0 64 13.458 64 30C64 46.542 77.458 60 94 60ZM94 4C96.8 4 99.782 7.764 101.756 14H86.244C88.218 7.764 91.2 4 94 4ZM102.802 18C103.434 20.978 103.846 24.338 103.958 28H84.044C84.156 24.338 84.568 20.978 85.2 18H102.802ZM119.898 28H107.956C107.856 24.436 107.504 21.068 106.914 18H117.042C118.628 21.034 119.624 24.416 119.898 28ZM94 56C91.2 56 88.218 52.236 86.244 46H101.756C99.782 52.236 96.8 56 94 56ZM85.198 42C84.566 39.022 84.154 35.662 84.042 32H103.956C103.844 35.662 103.432 39.022 102.8 42H85.198ZM107.956 32H119.898C119.624 35.584 118.628 38.966 117.042 42H106.914C107.504 38.932 107.856 35.564 107.956 32ZM80.044 28H68.102C68.376 24.416 69.372 21.034 70.958 18H81.086C80.496 21.068 80.144 24.436 80.044 28ZM80.044 32C80.144 35.564 80.496 38.932 81.086 42H70.958C69.372 38.966 68.376 35.584 68.102 32H80.044ZM73.548 46H82.044C83.018 49.442 84.306 52.386 85.842 54.67C80.932 53.042 76.676 49.988 73.548 46ZM102.156 54.67C103.692 52.386 104.978 49.442 105.954 46H114.45C111.324 49.988 107.068 53.042 102.156 54.67ZM114.452 14H105.956C104.982 10.558 103.694 7.614 102.158 5.33C107.068 6.958 111.324 10.012 114.452 14ZM85.844 5.33C84.306 7.614 83.02 10.558 82.046 14H73.55C76.676 10.012 80.932 6.958 85.844 5.33Z" fill="#93CDE9"/>
</svg>
