<svg width="123" height="108" viewBox="0 0 123 108" fill="none" xmlns="http://www.w3.org/2000/svg">
<path d="M120.599 59.1376H120.598C119.271 59.1376 118.196 60.2121 118.195 61.5385C118.187 76.6689 112.29 90.8939 101.589 101.593C90.881 112.3 76.6436 118.196 61.4996 118.196C46.3557 118.196 32.1188 112.299 21.4102 101.593C10.7018 90.8862 4.80443 76.6504 4.80443 61.5089C4.80443 46.3672 10.7016 32.1319 21.4102 21.4251C38.5947 4.24282 64.7774 -0.0898075 86.5622 10.6434C87.7515 11.2296 89.1924 10.7402 89.7789 9.55055C90.3654 8.36067 89.876 6.92071 88.6859 6.3343C65.0544 -5.30866 36.6534 -0.608957 18.013 18.0282C6.39718 29.6423 0 45.0838 0 61.5089C0 77.9337 6.39718 93.3755 18.0128 104.99C29.6288 116.604 45.0729 123 61.5001 123C77.9273 123 93.3714 116.604 104.987 104.99C116.594 93.3841 122.992 77.9534 123 61.5409C123 60.214 121.926 59.1383 120.599 59.1376Z" fill="#93CDE9"/>
<path d="M96.9428 11.2449L96.88 11.201C95.7935 10.4401 94.2952 10.7044 93.5343 11.7915C92.7738 12.878 93.0384 14.3757 94.1254 15.1365L94.1813 15.1761C94.6016 15.4711 95.0831 15.6129 95.56 15.6129C96.3161 15.6129 97.0602 15.2568 97.5281 14.5914C98.2907 13.5055 98.0288 12.0077 96.9428 11.2449Z" fill="#93CDE9"/>
<path d="M108.544 59.0895C107.217 59.0895 106.141 60.1648 106.141 61.4916L106.141 61.6386C106.135 62.965 107.206 64.0453 108.533 64.0511C108.536 64.0511 108.54 64.0513 108.544 64.0513C109.865 64.0513 110.94 62.983 110.946 61.6598L110.946 61.4914C110.946 60.1648 109.87 59.0895 108.544 59.0895Z" fill="#93CDE9"/>
<path d="M108.029 68.886C106.731 68.6119 105.456 69.4436 105.183 70.7418C100.862 91.2694 82.4728 106.169 61.4581 106.169C36.8194 106.169 16.7744 86.1267 16.7744 61.4916C16.7744 45.5372 25.1824 31.0436 38.6322 23.0693C38.476 24.0775 38.9787 25.1134 39.9422 25.5893C40.2846 25.7584 40.6476 25.8387 41.0046 25.8387C41.8898 25.8387 42.7413 25.3474 43.1603 24.5003L45.8216 19.1157C46.4095 17.9266 45.9218 16.4861 44.7324 15.8983L39.3468 13.2372C38.157 12.6493 36.7168 13.1373 36.1286 14.3264C35.5407 15.5156 36.0284 16.956 37.2178 17.5439L37.9789 17.9198C22.0356 26.496 11.9697 43.1194 11.9697 61.4911C11.9697 88.775 34.1699 110.972 61.4581 110.972C72.8793 110.972 84.0227 106.989 92.8356 99.7568C101.527 92.6238 107.582 82.6707 109.885 71.7309C110.158 70.4331 109.327 69.1592 108.029 68.886Z" fill="#93CDE9"/>
<path d="M61.4999 53.8226C58.1001 53.8226 55.2103 56.0419 54.1988 59.107H34.3533C33.0267 59.107 31.9508 60.1823 31.9508 61.5091C31.9508 62.8355 33.0265 63.9112 34.3533 63.9112H54.1988C54.9607 66.2201 56.7882 68.0474 59.0974 68.8091V95.0341C59.0974 96.3604 60.1731 97.4362 61.4996 97.4362C62.8262 97.4362 63.9021 96.3606 63.9021 95.0341V68.8089C66.9677 67.7978 69.1873 64.9082 69.1873 61.5089C69.1873 57.2707 65.7387 53.8226 61.4999 53.8226ZM61.4999 64.3915C59.9103 64.3915 58.6171 63.0985 58.6171 61.5091C58.6171 59.9198 59.9103 58.6268 61.4999 58.6268C63.0895 58.6268 64.3826 59.9198 64.3826 61.5091C64.3826 63.0985 63.0895 64.3915 61.4999 64.3915Z" fill="#93CDE9"/>
<path d="M72.5528 44.8907H67.8706C71.2089 41.5399 74.9552 36.6939 74.9552 31.8181C74.9552 27.0639 71.7604 23.8695 67.0054 23.8695C62.6219 23.8695 59.0556 27.4353 59.0556 31.8181C59.0556 33.1447 60.1313 34.2202 61.4581 34.2202C62.7846 34.2202 63.8605 33.1449 63.8605 31.8181C63.8605 30.0841 65.2714 28.6734 67.0057 28.6734C70.1508 28.6734 70.1508 31.0405 70.1508 31.8181C70.1506 36.8066 62.8475 43.2835 60.035 45.3575C59.1988 45.9725 58.8519 47.055 59.1755 48.0414C59.4994 49.0275 60.4201 49.6947 61.4583 49.6947H72.5532C73.8798 49.6947 74.9557 48.6194 74.9557 47.2926C74.9552 45.966 73.8793 44.8907 72.5528 44.8907Z" fill="#93CDE9"/>
<path d="M97.5007 34.3889H97.1273V26.2711C97.1273 24.9445 96.0516 23.869 94.7248 23.869C93.3981 23.869 92.3224 24.9443 92.3224 26.2711V34.3889H85.8466V26.2711C85.8466 24.9445 84.7709 23.869 83.4442 23.869C82.1176 23.869 81.0417 24.9443 81.0417 26.2711V36.791C81.0417 38.1175 82.1174 39.1931 83.4442 39.1931H92.3224V47.3341C92.3224 48.6607 93.3981 49.7362 94.7248 49.7362C96.0516 49.7362 97.1273 48.6609 97.1273 47.3341V39.1931H97.5007C98.8272 39.1931 99.9031 38.1178 99.9031 36.791C99.9031 35.4641 98.8272 34.3889 97.5007 34.3889Z" fill="#93CDE9"/>
<path d="M114.624 45.1138C115.619 45.1138 116.57 44.9199 117.442 44.5713V47.2923C117.442 48.6189 118.518 49.6944 119.845 49.6944C121.172 49.6944 122.247 48.6191 122.247 47.2923V32.2711C122.247 30.9445 121.172 29.869 119.845 29.869C118.518 29.869 117.442 30.9443 117.442 32.2711V37.4916C117.442 39.0457 116.178 40.3098 114.624 40.3098C113.069 40.3098 111.805 39.0454 111.805 37.4916V32.2711C111.805 30.9445 110.729 29.869 109.402 29.869C108.076 29.869 107 30.9443 107 32.2711V37.4916C107 41.6945 110.42 45.1138 114.624 45.1138Z" fill="#93CDE9"/>
</svg>
