<svg width="123" height="108" viewBox="0 0 123 108" fill="none" xmlns="http://www.w3.org/2000/svg">
<path d="M95.2258 61.6012V61.5C95.2258 60.0954 95.0116 58.7404 94.6227 57.4628L104.151 49.8408C107.565 47.109 108.121 42.1037 105.385 38.6835C103.868 36.7929 101.612 35.7077 99.1916 35.7077C97.4001 35.7077 95.6385 36.3267 94.2339 37.4475L81.5173 47.6208C81.4558 47.6208 81.3982 47.6129 81.3387 47.6129C75.7839 47.6129 70.9928 50.9002 68.7729 55.6258C67.6163 54.6358 66.3525 53.7728 64.9698 53.0824C63.0534 52.1262 61.006 51.5053 58.8813 51.2394L47.2935 49.7912L46.3452 45.0478C48.8945 43.3277 50.8764 40.8082 52.1123 37.6955H53.5645C57.9409 37.6955 61.5 34.1365 61.5 29.76C61.5 27.9091 60.8374 26.2268 59.772 24.8758C60.3791 22.9871 61.5 19.063 61.5 15.871C61.5 11.8497 58.4905 8.51477 54.608 8.00294L53.6002 6.66184C50.4736 2.48976 45.4941 0 40.2785 0C38.3343 0 36.4199 0.337258 34.5868 1.00185L21.5369 5.74727C16.9621 7.41174 13.8871 11.8001 13.8871 16.6685C13.8871 17.6148 14.0041 18.5631 14.2422 19.5213L15.6646 24.8182C14.5695 26.1772 13.8871 27.8813 13.8871 29.7581C13.8871 34.1345 17.4462 37.6936 21.8226 37.6936H23.2748C24.5107 40.8082 26.4926 43.3258 29.0419 45.0458L28.0936 49.7892L16.5058 51.2374C14.3811 51.5033 12.3317 52.1242 10.4173 53.0805C3.99155 56.2943 0 62.7518 0 69.9354V91.2581C0 95.6345 3.55906 99.1936 7.93548 99.1936H11.9032V123H123V91.2581C123 75.52 110.71 62.6288 95.2258 61.6012ZM107.129 107.129H95.2258V105.145C95.2258 101.864 92.5555 99.1936 89.2742 99.1936H75.3871V91.2581H91.2581V83.3226H95.2258V77.5297C101.943 78.4978 107.129 84.2768 107.129 91.2581V107.129ZM63.4839 105.145C63.4839 104.052 64.3726 103.161 65.4677 103.161H89.2742C90.3693 103.161 91.2581 104.052 91.2581 105.145V107.129H63.4839V105.145ZM75.3871 83.3226H87.2903V87.2903H75.3871V83.3226ZM96.7137 40.5464C98.3623 39.2231 100.971 39.5187 102.288 41.1633C103.655 42.8734 103.38 45.3771 101.671 46.744L92.8749 53.7808C91.3454 51.5013 89.1552 49.7039 86.5841 48.6505L96.7137 40.5464ZM71.4194 61.5C71.4194 56.0305 75.8692 51.5806 81.3387 51.5806C86.8082 51.5806 91.2581 56.0305 91.2581 61.5V79.3548H71.4194V61.5ZM49.0869 54.0129L47.9402 62.8252L41.0205 60.518L46.4861 53.6875L49.0869 54.0129ZM49.5968 21.8226H25.7903V21.7313C30.2104 21.3226 34.3448 19.551 37.6936 16.6229C41.0443 19.553 45.1767 21.3226 49.5968 21.7313V21.8226ZM25.7903 29.7581V25.7903H49.5968V29.7581C49.5968 30.4425 49.5551 31.0992 49.4956 31.7419H41.322C40.8003 31.7419 40.2885 31.5297 39.9195 31.1607L37.6936 28.9367L35.4696 31.1607C35.0986 31.5297 34.5888 31.7419 34.067 31.7419H25.8935C25.832 31.0992 25.7903 30.4425 25.7903 29.7581ZM53.5645 33.7258H53.2273C53.4455 32.4621 53.5645 31.1408 53.5645 29.7581V25.7903C55.7527 25.7903 57.5323 27.5699 57.5323 29.7581C57.5323 31.9463 55.7527 33.7258 53.5645 33.7258ZM22.8919 9.47695L35.9418 4.73153C37.3365 4.22366 38.7966 3.96774 40.2785 3.96774C44.2502 3.96774 48.0454 5.86432 50.428 9.04248L52.5726 11.9032H53.5645C55.7527 11.9032 57.5323 13.6828 57.5323 15.871C57.5323 17.9461 56.9113 20.539 56.3856 22.3642C55.5067 22.0269 54.5624 21.8226 53.5645 21.8226V17.8548H51.5806C46.992 17.8548 42.681 16.0694 39.4354 12.8218L37.6936 11.0859L35.9497 12.8237C32.7061 16.0694 28.3951 17.8548 23.8065 17.8548H21.8226V21.8226C20.8644 21.8226 19.9558 22.019 19.1047 22.3324L18.083 18.5274C17.9322 17.9183 17.8548 17.2914 17.8548 16.6685C17.8548 13.4625 19.8804 10.572 22.8919 9.47695ZM21.8226 33.7258C19.6344 33.7258 17.8548 31.9463 17.8548 29.7581C17.8548 27.5699 19.6344 25.7903 21.8226 25.7903V29.7581C21.8226 31.1408 21.9416 32.4621 22.1598 33.7258H21.8226ZM26.7168 35.7097H34.067C35.3962 35.7097 36.66 35.2772 37.6936 34.4777C38.7271 35.2772 39.9909 35.7097 41.3201 35.7097H48.6703C46.9721 40.6654 43.0341 43.6452 37.6936 43.6452C32.353 43.6452 28.415 40.6654 26.7168 35.7097ZM37.6936 47.6129C39.4592 47.6129 41.1217 47.349 42.6612 46.8531L43.5023 51.0609L37.6936 58.3238L31.8848 51.0629L32.7259 46.8551C34.2654 47.349 35.9279 47.6129 37.6936 47.6129ZM28.901 53.6875L34.3666 60.518L27.4469 62.8252L26.3002 54.0129L28.901 53.6875ZM3.96774 91.2581V69.9354C3.96774 64.2655 7.12011 59.165 12.1929 56.6296C13.7046 55.8737 15.3214 55.3837 16.9998 55.1734L22.3662 54.5029L24.1358 68.1103L35.7097 64.2516V71.4194H23.8065V75.3871H27.7742V83.3226H15.871V69.4355H11.9032V87.2903H35.7097V95.2258H7.93548C5.74727 95.2258 3.96774 93.4463 3.96774 91.2581ZM35.7097 107.129C33.5215 107.129 31.7419 105.35 31.7419 103.161V99.1936H39.6774V103.161C39.6774 105.35 37.8979 107.129 35.7097 107.129ZM39.6774 95.2258V87.2903H43.6452C45.8334 87.2903 47.6129 89.0699 47.6129 91.2581C47.6129 93.4463 45.8334 95.2258 43.6452 95.2258H39.6774ZM31.7419 83.3226V75.3871H39.6774V83.3226H31.7419ZM15.871 99.1936H27.7742V103.161C27.7742 107.538 31.3333 111.097 35.7097 111.097V119.032H15.871V99.1936ZM45.7877 119.032H39.6774V109.994C42.0382 108.617 43.6452 106.086 43.6452 103.161V99.1936C48.0216 99.1936 51.5806 95.6345 51.5806 91.2581C51.5806 86.8816 48.0216 83.3226 43.6452 83.3226V75.3871H47.6129V71.4194H39.6774V64.2516L51.2533 68.1103L53.0229 54.5029L58.3893 55.1734C60.0676 55.3837 61.6845 55.8737 63.1962 56.6296C64.8587 57.4589 66.3089 58.5857 67.5449 59.9486C67.4873 60.4605 67.4516 60.9763 67.4516 61.5V83.3226H71.4194V99.1936H65.4677C64.7694 99.1936 64.1068 99.3364 63.4839 99.5586V69.4355H59.5161V107.129C52.5349 107.129 46.7559 112.313 45.7877 119.032ZM49.7971 119.032C50.7196 114.511 54.7251 111.097 59.5161 111.097H107.129V119.032H49.7971ZM119.032 119.032H111.097V91.2581C111.097 82.0846 104.139 74.5102 95.2258 73.5203V65.5689C108.52 66.5886 119.032 77.7062 119.032 91.2581V119.032Z" fill="#93CDE9"/>
</svg>
