<svg width="123" height="108" viewBox="0 0 123 108" fill="none" xmlns="http://www.w3.org/2000/svg">
<path d="M47.6129 45.1608C46.857 46.6726 45.3374 47.6129 43.6452 47.6129C41.9529 47.6129 40.4333 46.6726 39.6774 45.1608L39.4691 44.7422L35.92 46.5178L36.1283 46.9344C37.5606 49.8011 40.4412 51.5806 43.6452 51.5806C46.8491 51.5806 49.7297 49.8011 51.162 46.9344L51.3704 46.5158L47.8212 44.7403L47.6129 45.1608Z" fill="#93CDE9"/>
<path d="M117.913 97.9913L111.097 92.3135V75.3871C111.097 73.1989 109.317 71.4194 107.129 71.4194H103.161C100.973 71.4194 99.1936 73.1989 99.1936 75.3871V92.3135L92.377 97.9913C91.2085 98.9654 90.2344 100.126 89.4428 101.402L87.2903 98.5329V78.8509C97.3823 70.5226 103.161 58.3218 103.161 45.2025V41.2982C105.465 40.4769 107.129 38.2947 107.129 35.7117V27.7762C107.129 24.4949 104.459 21.8246 101.177 21.8246C100.479 21.8246 99.8165 21.9674 99.1936 22.1896V13.8871C99.1936 10.6058 96.5233 7.93548 93.2419 7.93548C89.9606 7.93548 87.2903 10.6058 87.2903 13.8871V22.1876C86.6674 21.9654 86.0048 21.8226 85.3064 21.8226C82.0251 21.8226 79.3548 24.4929 79.3548 27.7742C79.3548 31.0555 82.0251 33.7258 85.3064 33.7258C86.0048 33.7258 86.6674 33.583 87.2903 33.3608V33.7258C87.2903 50.1344 73.9409 63.4839 57.5323 63.4839H47.2717L46.4761 59.282C52.6638 58.2405 57.6195 53.5645 59.0698 47.5236C66.0054 46.7539 71.4194 40.8638 71.4194 33.7258C71.4194 30.875 70.5405 28.1115 68.9137 25.7903C70.5405 23.4692 71.4194 20.7057 71.4194 17.8548C71.4194 9.53052 64.0215 2.83495 55.5047 4.12447C52.9019 1.48989 49.3666 0 45.629 0C42.7782 0 40.0167 0.880839 37.6936 2.50563C35.3704 0.880839 32.6089 0 29.7581 0C22.7312 0 16.9065 5.24734 15.994 12.0282C9.21508 12.9388 3.96774 18.7635 3.96774 25.7903C3.96774 30.0854 5.95558 34.0968 9.2746 36.7056C8.40169 38.2034 7.93548 39.9056 7.93548 41.6613C7.93548 46.5099 11.433 50.557 16.0376 51.414C16.8946 56.0186 20.9417 59.5161 25.7903 59.5161C26.4609 59.5161 27.1235 59.4269 27.7742 59.2939V63.71C12.0619 65.7633 0 79.2715 0 95.2972V101.177C0 113.21 9.7904 123 21.8226 123H47.6129C48.7576 123 49.8408 122.746 50.8248 122.308C51.666 122.746 52.5984 123 53.5645 123H65.4677C66.2415 123 66.9755 122.841 67.654 122.571C68.3801 122.845 69.1478 123 69.9314 123H92.746C94.0176 123 95.198 122.617 96.1979 121.978C97.8564 122.639 99.6399 123 101.433 123H108.857C116.656 123 123 116.656 123 108.857C123 104.647 121.145 100.685 117.913 97.9913ZM107.129 75.3871V83.3226H103.161V75.3871H107.129ZM94.9203 101.039L103.161 94.1704V87.2903H107.129V94.1704L115.37 101.039C117.14 102.513 118.33 104.514 118.802 106.718C118.13 106.435 117.566 106.028 116.915 105.542C115.501 104.481 113.739 103.161 110.432 103.161C107.125 103.161 105.365 104.483 103.951 105.542C102.721 106.462 101.834 107.129 99.8502 107.129C97.8683 107.129 96.9815 106.464 95.7535 105.542C94.9322 104.925 93.9799 104.215 92.6726 103.731C93.2618 102.719 94.0057 101.8 94.9203 101.039ZM88.9746 107.389C88.2842 107.23 87.5145 107.129 86.6257 107.129C83.3186 107.129 81.5589 108.45 80.1444 109.51C78.9144 110.43 78.0276 111.097 76.0438 111.097C74.1214 111.097 73.2247 110.466 72.0542 109.589L79.3548 99.8542V95.2258H83.3226V99.8542L88.9746 107.389ZM63.4839 88.9171L68.0745 87.9986C70.5762 87.4986 73.0223 86.7705 75.3871 85.85V98.5329L71.4194 103.824V99.1936C71.4194 97.0053 69.6398 95.2258 67.4516 95.2258H63.4839V88.9171ZM83.3226 91.2581H79.3548V87.2903H83.3226V91.2581ZM83.3226 83.3226H79.3548V75.3871H83.3226V83.3226ZM101.177 25.7903C102.273 25.7903 103.161 26.6811 103.161 27.7742V35.7097C103.161 36.8028 102.273 37.6936 101.177 37.6936C100.082 37.6936 99.1936 36.8028 99.1936 35.7097V27.7742C99.1936 26.6811 100.082 25.7903 101.177 25.7903ZM93.2419 11.9032C94.337 11.9032 95.2258 12.794 95.2258 13.8871V21.8226H91.2581V13.8871C91.2581 12.794 92.1468 11.9032 93.2419 11.9032ZM85.3064 29.7581C84.2114 29.7581 83.3226 28.8673 83.3226 27.7742C83.3226 26.6811 84.2114 25.7903 85.3064 25.7903C86.4016 25.7903 87.2903 26.6811 87.2903 27.7742C87.2903 28.8673 86.4016 29.7581 85.3064 29.7581ZM91.2581 25.7903H95.2258V39.6774C95.2258 40.7705 94.337 41.6613 93.2419 41.6613C92.1468 41.6613 91.2581 40.7705 91.2581 39.6774V25.7903ZM89.5361 44.2979C90.5558 45.1172 91.8334 45.629 93.2419 45.629C95.9856 45.629 98.279 43.7543 98.9634 41.2248C99.0368 41.2546 99.1182 41.2685 99.1936 41.2963V45.2025C99.1936 56.1376 94.7755 66.3704 86.9709 73.8337C86.3658 72.4153 84.9593 71.4194 83.3226 71.4194H79.3548C77.1666 71.4194 75.3871 73.1989 75.3871 75.3871V81.549C72.7962 82.6798 70.0862 83.5487 67.2969 84.1082L63.4839 84.87V79.3548H59.5161V95.2258H51.5806V67.4516H57.5323C72.4351 67.4516 85.0882 57.7267 89.5361 44.2979ZM47.6129 107.129H47.353C46.9443 105.824 46.0635 104.736 44.9228 104.026L41.7486 81.8069L43.8277 78.6883L47.6129 80.5809V107.129ZM36.8861 106.292L36.4675 107.129H34.0293L37.4297 83.3226H37.9554L40.8122 103.32C39.1319 103.663 37.6777 104.711 36.8861 106.292ZM29.0359 67.5508L34.3448 72.8596L27.7742 76.1449V67.7036C28.1908 67.6401 28.6134 67.5945 29.0359 67.5508ZM46.4504 67.4516H47.6129V76.1449L41.0423 72.8596L46.4504 67.4516ZM38.6161 79.3548H36.771L35.1344 76.9008L37.6936 75.6212L40.2527 76.9008L38.6161 79.3548ZM27.7742 80.5809L31.5594 78.6883L33.6385 81.8069L30.0199 107.129H27.7742V80.5809ZM55.5484 43.8773C55.5484 50.313 50.313 55.5484 43.8773 55.5484C42.6195 55.5484 41.3776 55.346 40.1873 54.9493L36.3386 53.6657L35.0828 57.4291L38.9315 58.7127C40.0782 59.0936 41.2645 59.292 42.4608 59.4011L43.4845 64.8051L37.6936 70.598L31.7419 64.6464V40.4353L25.4193 37.275C24.4254 36.777 23.8065 35.7751 23.8065 34.6622C23.8065 33.0533 25.1158 31.7419 26.7267 31.7419H27.7742C27.7742 36.1184 31.3333 39.6774 35.7097 39.6774C40.0861 39.6774 43.6452 36.1184 43.6452 31.7419H47.6129C47.6129 36.1184 51.172 39.6774 55.5484 39.6774V43.8773ZM53.5645 19.8387C54.6596 19.8387 55.5484 20.7295 55.5484 21.8226V23.8065C52.6242 23.8065 50.0927 25.4134 48.7159 27.7742H42.5401C41.1633 25.4134 38.6319 23.8065 35.7077 23.8065C34.2932 23.8065 32.9838 24.2092 31.8332 24.8599C32.2875 22.021 34.7296 19.8387 37.6936 19.8387H53.5645ZM55.5484 35.7097C53.3602 35.7097 51.5806 33.9301 51.5806 31.7419C51.5806 29.5537 53.3602 27.7742 55.5484 27.7742C57.7366 27.7742 59.5161 29.5537 59.5161 31.7419C59.5161 33.9301 57.7366 35.7097 55.5484 35.7097ZM35.7097 27.7742C37.8979 27.7742 39.6774 29.5537 39.6774 31.7419C39.6774 33.9301 37.8979 35.7097 35.7097 35.7097C33.5215 35.7097 31.7419 33.9301 31.7419 31.7419C31.7419 29.5537 33.5215 27.7742 35.7097 27.7742ZM25.7903 55.5484C22.509 55.5484 19.8387 52.8781 19.8387 49.5968V47.6129H17.8548C14.5735 47.6129 11.9032 44.9426 11.9032 41.6613C11.9032 40.1476 12.4885 38.6974 13.5479 37.5785L15.3135 35.7176L13.0678 34.4777C9.9015 32.7279 7.93548 29.399 7.93548 25.7903C7.93548 20.3208 12.3853 15.871 17.8548 15.871H19.8387V13.8871C19.8387 8.41756 24.2885 3.96774 29.7581 3.96774C32.1923 3.96774 34.5392 4.8704 36.3703 6.50908L37.6936 7.69544L39.0168 6.50908C40.8479 4.8704 43.1948 3.96774 45.629 3.96774C48.585 3.96774 51.3664 5.27313 53.261 7.55061L54.0466 8.49692L55.2449 8.21323C61.7817 6.67573 67.4516 11.6473 67.4516 17.8548C67.4516 20.291 66.549 22.6399 64.9103 24.4651L63.72 25.7903L64.9103 27.1155C66.549 28.9407 67.4516 31.2896 67.4516 33.7258C67.4516 38.5149 64.0374 42.5223 59.5161 43.4448V38.5744C61.8769 37.1976 63.4839 34.6662 63.4839 31.7419C63.4839 28.8177 61.8769 26.2863 59.5161 24.9095V21.8226C59.5161 18.5413 56.8458 15.871 53.5645 15.871H45.629C44.5339 15.871 43.6452 14.9802 43.6452 13.8871C43.6452 12.794 44.5339 11.9032 45.629 11.9032H47.6129V7.93548H45.629C42.3477 7.93548 39.6774 10.6058 39.6774 13.8871C39.6774 14.5854 39.8203 15.248 40.0425 15.871H37.6936C32.224 15.871 27.7742 20.3208 27.7742 25.7903V27.7742H26.7267C22.9296 27.7742 19.8387 30.8651 19.8387 34.6622C19.8387 37.2888 21.2969 39.6496 23.6458 40.8221L27.7742 42.8873V55.1635C27.1374 55.3897 26.4767 55.5484 25.7903 55.5484ZM3.96774 101.177V95.2972C3.96774 82.8345 12.304 72.1097 23.8065 68.6042V107.129H21.8226C18.5413 107.129 15.871 104.459 15.871 101.177V87.2903H11.9032V101.177C11.9032 106.647 16.353 111.097 21.8226 111.097H35.7097V119.032H21.8226C11.9766 119.032 3.96774 111.021 3.96774 101.177ZM39.6774 119.032V109.581L40.4353 108.065C40.7229 107.488 41.3042 107.129 41.9509 107.129C42.8834 107.129 43.6452 107.889 43.6452 108.823V111.097H47.6129C49.8011 111.097 51.5806 112.876 51.5806 115.065C51.5806 117.253 49.8011 119.032 47.6129 119.032H39.6774ZM54.4454 119.032C55.1278 117.86 55.5484 116.517 55.5484 115.065C55.5484 112.14 53.9415 109.609 51.5806 108.232V99.1936H67.4516V103.161H59.5161V107.129H67.4516V111.097H63.4839V115.065H67.4516V117.048C67.4516 118.142 66.5628 119.032 65.4677 119.032H54.4454ZM92.746 119.032H71.0543C71.2765 118.409 71.4194 117.747 71.4194 117.048V113.93C72.5621 114.563 74.0083 115.065 76.0438 115.065C79.3509 115.065 81.1106 113.743 82.5251 112.684C83.7551 111.763 84.6419 111.097 86.6257 111.097C88.6116 111.097 89.4984 111.763 90.7284 112.684C91.6529 113.378 92.8055 114.196 94.4323 114.668L94.7298 115.065C95.0492 115.493 95.2258 116.021 95.2258 116.552C95.2258 117.919 94.1129 119.032 92.746 119.032ZM108.857 119.032H101.433C100.531 119.032 99.6558 118.905 98.8047 118.679C99.0408 118.011 99.1936 117.302 99.1936 116.552C99.1936 115.168 98.7373 113.793 97.904 112.684L96.2098 110.424C97.1839 110.819 98.3524 111.097 99.8502 111.097C103.157 111.097 104.917 109.776 106.332 108.716C107.562 107.796 108.448 107.129 110.432 107.129C112.418 107.129 113.305 107.794 114.535 108.716C115.598 109.514 116.86 110.458 118.828 110.877C117.888 115.523 113.775 119.032 108.857 119.032Z" fill="#93CDE9"/>
</svg>
