<svg width="29" height="30" viewBox="0 0 29 30" fill="none" xmlns="http://www.w3.org/2000/svg">
<path fill-rule="evenodd" clip-rule="evenodd" d="M19.608 2.65362C18.5516 2.65362 17.5384 3.0733 16.7914 3.82033L4.59796 16.0137C3.35301 17.2587 2.65362 18.9472 2.65362 20.7079C2.65362 22.4685 3.35301 24.157 4.59796 25.402C5.84292 26.647 7.53146 27.3464 9.29209 27.3464C11.0527 27.3464 12.7413 26.647 13.9862 25.402L26.1796 13.2086C26.6978 12.6904 27.5379 12.6904 28.056 13.2086C28.5742 13.7267 28.5742 14.5668 28.056 15.085L15.8626 27.2784C14.12 29.021 11.7565 30 9.29209 30C6.82767 30 4.46418 29.021 2.72157 27.2784C0.978959 25.5357 0 23.1723 0 20.7079C0 18.2434 0.978959 15.88 2.72157 14.1374L14.915 1.94398C16.1596 0.699296 17.8478 0 19.608 0C21.3683 0 23.0564 0.699296 24.3011 1.94398C25.5458 3.18866 26.2451 4.87681 26.2451 6.63705C26.2451 8.3973 25.5458 10.0855 24.3011 11.3301L12.0944 23.5235C11.3477 24.2703 10.3349 24.6898 9.27881 24.6898C8.22274 24.6898 7.20994 24.2703 6.46319 23.5235C5.71643 22.7768 5.29692 21.7639 5.29692 20.7079C5.29692 19.6518 5.71643 18.6389 6.46319 17.8922L17.7284 6.64029C18.2468 6.12245 19.0869 6.12297 19.6048 6.64143C20.1226 7.15988 20.1221 7.99994 19.6037 8.51778L8.33958 19.7686C8.09083 20.0177 7.95054 20.3558 7.95054 20.7079C7.95054 21.0601 8.09048 21.398 8.33958 21.6471C8.58869 21.8962 8.92653 22.0361 9.27881 22.0361C9.6311 22.0361 9.96898 21.8962 10.2181 21.6471L22.4247 9.45369C23.1714 8.70671 23.5914 7.69327 23.5914 6.63705C23.5914 5.58059 23.1718 4.56736 22.4247 3.82033C21.6777 3.0733 20.6645 2.65362 19.608 2.65362Z" fill="#1191D0"/>
</svg>
