<svg width="22" height="23" viewBox="0 0 22 23" fill="none" xmlns="http://www.w3.org/2000/svg">
<path fill-rule="evenodd" clip-rule="evenodd" d="M14.7783 2C13.9821 2 13.2185 2.31631 12.6554 2.87933L3.46542 12.0693C2.52712 13.0076 2 14.2803 2 15.6072C2 16.9342 2.52712 18.2068 3.46542 19.1451C4.40373 20.0835 5.67636 20.6106 7.00333 20.6106C8.33029 20.6106 9.60292 20.0835 10.5412 19.1451L19.7312 9.95514C20.1218 9.56461 20.7549 9.56461 21.1454 9.95514C21.536 10.3457 21.536 10.9788 21.1454 11.3693L11.9554 20.5593C10.6421 21.8727 8.86073 22.6106 7.00333 22.6106C5.14593 22.6106 3.36459 21.8727 2.05121 20.5593C0.737828 19.2459 0 17.4646 0 15.6072C0 13.7498 0.737828 11.9685 2.05121 10.6552L11.2412 1.46515C12.1793 0.52705 13.4516 0 14.7783 0C16.105 0 17.3773 0.52705 18.3154 1.46515C19.2535 2.40325 19.7805 3.67559 19.7805 5.00226C19.7805 6.32893 19.2535 7.60127 18.3154 8.53937L9.11542 17.7294C8.5526 18.2922 7.78926 18.6083 6.99332 18.6083C6.19737 18.6083 5.43403 18.2922 4.87122 17.7294C4.3084 17.1666 3.99222 16.4032 3.99222 15.6072C3.99222 14.8113 4.3084 14.0479 4.87122 13.4851L13.3616 5.0047C13.7524 4.61441 14.3856 4.6148 14.7758 5.00555C15.1661 5.39631 15.1658 6.02944 14.775 6.41974L6.28543 14.8994C6.09795 15.0871 5.99222 15.3419 5.99222 15.6072C5.99222 15.8728 6.09769 16.1274 6.28543 16.3151C6.47318 16.5029 6.72781 16.6083 6.99332 16.6083C7.25883 16.6083 7.51349 16.5029 7.70123 16.3151L16.9012 7.12512C17.464 6.56213 17.7805 5.79832 17.7805 5.00226C17.7805 4.20602 17.4642 3.44236 16.9012 2.87933C16.3382 2.31631 15.5746 2 14.7783 2Z" fill="white"/>
</svg>
